<svg xmlns="http://www.w3.org/2000/svg" xmlns:xlink="http://www.w3.org/1999/xlink" width="1200" zoomAndPan="magnify" viewBox="0 0 900 225" height="300" preserveAspectRatio="xMidYMid meet" version="1.0"><defs><g/><clipPath id="292bc366ba"><rect x="0" width="816" y="0" height="225"/></clipPath></defs><g transform="matrix(1, 0, 0, 1, 48, -0.000000000000008531)"><g clip-path="url(#292bc366ba)"><g fill="#0057ff" fill-opacity="0.302"><g transform="translate(19.821087, 221.147951)"><g><path d="M 11.25 0 L 11.25 -168.703125 C 11.25 -176.203125 13.734375 -182.53125 18.703125 -187.6875 C 23.671875 -192.84375 29.617188 -195.421875 36.546875 -195.421875 L 71.703125 -195.421875 C 78.640625 -195.421875 84.585938 -192.84375 89.546875 -187.6875 C 94.515625 -182.53125 97 -176.203125 97 -168.703125 L 97 0 L 66.078125 0 L 66.078125 -82.953125 L 42.171875 -70.296875 L 42.171875 0 Z M 42.171875 -104.875 L 66.078125 -117.53125 L 66.078125 -165.890625 L 42.171875 -165.890625 Z M 42.171875 -104.875 "/></g></g></g><g fill="#0057ff" fill-opacity="0.302"><g transform="translate(128.072789, 221.147951)"><g><path d="M 97 -195.421875 L 97 -26.71875 C 97 -19.21875 94.515625 -12.890625 89.546875 -7.734375 C 84.585938 -2.578125 78.640625 0 71.703125 0 L 36.546875 0 C 29.617188 0 23.671875 -2.625 18.703125 -7.875 C 13.734375 -13.125 11.25 -19.40625 11.25 -26.71875 L 11.25 -195.421875 L 42.171875 -195.421875 L 42.171875 -29.515625 L 66.078125 -29.515625 L 66.078125 -195.421875 Z M 97 -195.421875 "/></g></g></g><g fill="#0057ff" fill-opacity="0.302"><g transform="translate(236.324491, 221.147951)"><g><path d="M 66.078125 -53.421875 L 97 -68.890625 L 97 -26.71875 C 97 -19.21875 94.515625 -12.890625 89.546875 -7.734375 C 84.585938 -2.578125 78.640625 0 71.703125 0 L 36.546875 0 C 29.617188 0 23.671875 -2.625 18.703125 -7.875 C 13.734375 -13.125 11.25 -19.40625 11.25 -26.71875 L 11.25 -168.703125 C 11.25 -176.203125 13.734375 -182.53125 18.703125 -187.6875 C 23.671875 -192.84375 29.617188 -195.421875 36.546875 -195.421875 L 71.703125 -195.421875 C 78.640625 -195.421875 84.585938 -192.84375 89.546875 -187.6875 C 94.515625 -182.53125 97 -176.203125 97 -168.703125 L 97 -151.828125 L 66.078125 -136.375 L 66.078125 -165.890625 L 42.171875 -165.890625 L 42.171875 -29.515625 L 66.078125 -29.515625 Z M 66.078125 -53.421875 "/></g></g></g><g fill="#0057ff" fill-opacity="0.302"><g transform="translate(341.764439, 221.147951)"><g><path d="M 35.140625 0 L 35.140625 -165.890625 L 4.21875 -165.890625 L 4.21875 -195.421875 L 97 -195.421875 L 97 -165.890625 L 66.078125 -165.890625 L 66.078125 0 Z M 35.140625 0 "/></g></g></g><g fill="#0057ff" fill-opacity="0.302"><g transform="translate(442.986812, 221.147951)"><g><path d="M 11.25 0 L 11.25 -195.421875 L 42.171875 -195.421875 L 42.171875 0 Z M 11.25 0 "/></g></g></g><g fill="#0057ff" fill-opacity="0.302"><g transform="translate(496.409716, 221.147951)"><g><path d="M 97 -168.703125 L 97 -26.71875 C 97 -19.21875 94.515625 -12.890625 89.546875 -7.734375 C 84.585938 -2.578125 78.640625 0 71.703125 0 L 36.546875 0 C 29.617188 0 23.671875 -2.625 18.703125 -7.875 C 13.734375 -13.125 11.25 -19.40625 11.25 -26.71875 L 11.25 -168.703125 C 11.25 -176.203125 13.734375 -182.53125 18.703125 -187.6875 C 23.671875 -192.84375 29.617188 -195.421875 36.546875 -195.421875 L 71.703125 -195.421875 C 78.640625 -195.421875 84.585938 -192.84375 89.546875 -187.6875 C 94.515625 -182.53125 97 -176.203125 97 -168.703125 Z M 66.078125 -29.515625 L 66.078125 -165.890625 L 42.171875 -165.890625 L 42.171875 -29.515625 Z M 66.078125 -29.515625 "/></g></g></g><g fill="#0057ff" fill-opacity="0.302"><g transform="translate(604.661418, 221.147951)"><g><path d="M 42.171875 0 L 11.25 0 L 11.25 -195.421875 L 42.171875 -195.421875 L 42.171875 -181.078125 C 43.296875 -183.515625 44.796875 -185.765625 46.671875 -187.828125 C 51.734375 -192.890625 57.734375 -195.421875 64.671875 -195.421875 L 71.703125 -195.421875 C 78.640625 -195.421875 84.585938 -192.84375 89.546875 -187.6875 C 94.515625 -182.53125 97 -176.203125 97 -168.703125 L 97 0 L 66.078125 0 L 66.078125 -165.890625 L 42.171875 -165.890625 Z M 42.171875 0 "/></g></g></g><g fill="#0057ff" fill-opacity="0.302"><g transform="translate(712.91312, 221.147951)"><g><path d="M 11.25 -168.703125 C 11.25 -176.390625 13.734375 -182.765625 18.703125 -187.828125 C 23.671875 -192.890625 29.617188 -195.421875 36.546875 -195.421875 L 71.703125 -195.421875 C 78.640625 -195.421875 84.585938 -192.84375 89.546875 -187.6875 C 94.515625 -182.53125 97 -176.203125 97 -168.703125 L 97 -160.265625 L 66.078125 -144.796875 L 66.078125 -165.890625 L 42.171875 -165.890625 L 42.171875 -113.875 L 97 -141.984375 L 97 -26.71875 C 97 -19.40625 94.515625 -13.125 89.546875 -7.875 C 84.585938 -2.625 78.640625 0 71.703125 0 L 36.546875 0 C 29.617188 0 23.671875 -2.578125 18.703125 -7.734375 C 13.734375 -12.890625 11.25 -19.21875 11.25 -26.71875 L 11.25 -44.984375 L 42.171875 -60.453125 L 42.171875 -29.515625 L 66.078125 -29.515625 L 66.078125 -91.375 L 11.25 -63.265625 Z M 11.25 -168.703125 "/></g></g></g><g fill="#0057ff" fill-opacity="0.502"><g transform="translate(10.557517, 214.167349)"><g><path d="M 11.25 0 L 11.25 -168.703125 C 11.25 -176.203125 13.734375 -182.53125 18.703125 -187.6875 C 23.671875 -192.84375 29.617188 -195.421875 36.546875 -195.421875 L 71.703125 -195.421875 C 78.640625 -195.421875 84.585938 -192.84375 89.546875 -187.6875 C 94.515625 -182.53125 97 -176.203125 97 -168.703125 L 97 0 L 66.078125 0 L 66.078125 -82.953125 L 42.171875 -70.296875 L 42.171875 0 Z M 42.171875 -104.875 L 66.078125 -117.53125 L 66.078125 -165.890625 L 42.171875 -165.890625 Z M 42.171875 -104.875 "/></g></g></g><g fill="#0057ff" fill-opacity="0.502"><g transform="translate(118.809219, 214.167349)"><g><path d="M 97 -195.421875 L 97 -26.71875 C 97 -19.21875 94.515625 -12.890625 89.546875 -7.734375 C 84.585938 -2.578125 78.640625 0 71.703125 0 L 36.546875 0 C 29.617188 0 23.671875 -2.625 18.703125 -7.875 C 13.734375 -13.125 11.25 -19.40625 11.25 -26.71875 L 11.25 -195.421875 L 42.171875 -195.421875 L 42.171875 -29.515625 L 66.078125 -29.515625 L 66.078125 -195.421875 Z M 97 -195.421875 "/></g></g></g><g fill="#0057ff" fill-opacity="0.502"><g transform="translate(227.060921, 214.167349)"><g><path d="M 66.078125 -53.421875 L 97 -68.890625 L 97 -26.71875 C 97 -19.21875 94.515625 -12.890625 89.546875 -7.734375 C 84.585938 -2.578125 78.640625 0 71.703125 0 L 36.546875 0 C 29.617188 0 23.671875 -2.625 18.703125 -7.875 C 13.734375 -13.125 11.25 -19.40625 11.25 -26.71875 L 11.25 -168.703125 C 11.25 -176.203125 13.734375 -182.53125 18.703125 -187.6875 C 23.671875 -192.84375 29.617188 -195.421875 36.546875 -195.421875 L 71.703125 -195.421875 C 78.640625 -195.421875 84.585938 -192.84375 89.546875 -187.6875 C 94.515625 -182.53125 97 -176.203125 97 -168.703125 L 97 -151.828125 L 66.078125 -136.375 L 66.078125 -165.890625 L 42.171875 -165.890625 L 42.171875 -29.515625 L 66.078125 -29.515625 Z M 66.078125 -53.421875 "/></g></g></g><g fill="#0057ff" fill-opacity="0.502"><g transform="translate(332.500869, 214.167349)"><g><path d="M 35.140625 0 L 35.140625 -165.890625 L 4.21875 -165.890625 L 4.21875 -195.421875 L 97 -195.421875 L 97 -165.890625 L 66.078125 -165.890625 L 66.078125 0 Z M 35.140625 0 "/></g></g></g><g fill="#0057ff" fill-opacity="0.502"><g transform="translate(433.723242, 214.167349)"><g><path d="M 11.25 0 L 11.25 -195.421875 L 42.171875 -195.421875 L 42.171875 0 Z M 11.25 0 "/></g></g></g><g fill="#0057ff" fill-opacity="0.502"><g transform="translate(487.146146, 214.167349)"><g><path d="M 97 -168.703125 L 97 -26.71875 C 97 -19.21875 94.515625 -12.890625 89.546875 -7.734375 C 84.585938 -2.578125 78.640625 0 71.703125 0 L 36.546875 0 C 29.617188 0 23.671875 -2.625 18.703125 -7.875 C 13.734375 -13.125 11.25 -19.40625 11.25 -26.71875 L 11.25 -168.703125 C 11.25 -176.203125 13.734375 -182.53125 18.703125 -187.6875 C 23.671875 -192.84375 29.617188 -195.421875 36.546875 -195.421875 L 71.703125 -195.421875 C 78.640625 -195.421875 84.585938 -192.84375 89.546875 -187.6875 C 94.515625 -182.53125 97 -176.203125 97 -168.703125 Z M 66.078125 -29.515625 L 66.078125 -165.890625 L 42.171875 -165.890625 L 42.171875 -29.515625 Z M 66.078125 -29.515625 "/></g></g></g><g fill="#0057ff" fill-opacity="0.502"><g transform="translate(595.397848, 214.167349)"><g><path d="M 42.171875 0 L 11.25 0 L 11.25 -195.421875 L 42.171875 -195.421875 L 42.171875 -181.078125 C 43.296875 -183.515625 44.796875 -185.765625 46.671875 -187.828125 C 51.734375 -192.890625 57.734375 -195.421875 64.671875 -195.421875 L 71.703125 -195.421875 C 78.640625 -195.421875 84.585938 -192.84375 89.546875 -187.6875 C 94.515625 -182.53125 97 -176.203125 97 -168.703125 L 97 0 L 66.078125 0 L 66.078125 -165.890625 L 42.171875 -165.890625 Z M 42.171875 0 "/></g></g></g><g fill="#0057ff" fill-opacity="0.502"><g transform="translate(703.64955, 214.167349)"><g><path d="M 11.25 -168.703125 C 11.25 -176.390625 13.734375 -182.765625 18.703125 -187.828125 C 23.671875 -192.890625 29.617188 -195.421875 36.546875 -195.421875 L 71.703125 -195.421875 C 78.640625 -195.421875 84.585938 -192.84375 89.546875 -187.6875 C 94.515625 -182.53125 97 -176.203125 97 -168.703125 L 97 -160.265625 L 66.078125 -144.796875 L 66.078125 -165.890625 L 42.171875 -165.890625 L 42.171875 -113.875 L 97 -141.984375 L 97 -26.71875 C 97 -19.40625 94.515625 -13.125 89.546875 -7.875 C 84.585938 -2.625 78.640625 0 71.703125 0 L 36.546875 0 C 29.617188 0 23.671875 -2.578125 18.703125 -7.734375 C 13.734375 -12.890625 11.25 -19.21875 11.25 -26.71875 L 11.25 -44.984375 L 42.171875 -60.453125 L 42.171875 -29.515625 L 66.078125 -29.515625 L 66.078125 -91.375 L 11.25 -63.265625 Z M 11.25 -168.703125 "/></g></g></g><g fill="#f9b054" fill-opacity="1"><g transform="translate(1.293947, 207.186746)"><g><path d="M 11.25 0 L 11.25 -168.703125 C 11.25 -176.203125 13.734375 -182.53125 18.703125 -187.6875 C 23.671875 -192.84375 29.617188 -195.421875 36.546875 -195.421875 L 71.703125 -195.421875 C 78.640625 -195.421875 84.585938 -192.84375 89.546875 -187.6875 C 94.515625 -182.53125 97 -176.203125 97 -168.703125 L 97 0 L 66.078125 0 L 66.078125 -82.953125 L 42.171875 -70.296875 L 42.171875 0 Z M 42.171875 -104.875 L 66.078125 -117.53125 L 66.078125 -165.890625 L 42.171875 -165.890625 Z M 42.171875 -104.875 "/></g></g></g><g fill="#f9b054" fill-opacity="1"><g transform="translate(109.545649, 207.186746)"><g><path d="M 97 -195.421875 L 97 -26.71875 C 97 -19.21875 94.515625 -12.890625 89.546875 -7.734375 C 84.585938 -2.578125 78.640625 0 71.703125 0 L 36.546875 0 C 29.617188 0 23.671875 -2.625 18.703125 -7.875 C 13.734375 -13.125 11.25 -19.40625 11.25 -26.71875 L 11.25 -195.421875 L 42.171875 -195.421875 L 42.171875 -29.515625 L 66.078125 -29.515625 L 66.078125 -195.421875 Z M 97 -195.421875 "/></g></g></g><g fill="#f9b054" fill-opacity="1"><g transform="translate(217.797351, 207.186746)"><g><path d="M 66.078125 -53.421875 L 97 -68.890625 L 97 -26.71875 C 97 -19.21875 94.515625 -12.890625 89.546875 -7.734375 C 84.585938 -2.578125 78.640625 0 71.703125 0 L 36.546875 0 C 29.617188 0 23.671875 -2.625 18.703125 -7.875 C 13.734375 -13.125 11.25 -19.40625 11.25 -26.71875 L 11.25 -168.703125 C 11.25 -176.203125 13.734375 -182.53125 18.703125 -187.6875 C 23.671875 -192.84375 29.617188 -195.421875 36.546875 -195.421875 L 71.703125 -195.421875 C 78.640625 -195.421875 84.585938 -192.84375 89.546875 -187.6875 C 94.515625 -182.53125 97 -176.203125 97 -168.703125 L 97 -151.828125 L 66.078125 -136.375 L 66.078125 -165.890625 L 42.171875 -165.890625 L 42.171875 -29.515625 L 66.078125 -29.515625 Z M 66.078125 -53.421875 "/></g></g></g><g fill="#f9b054" fill-opacity="1"><g transform="translate(323.237299, 207.186746)"><g><path d="M 35.140625 0 L 35.140625 -165.890625 L 4.21875 -165.890625 L 4.21875 -195.421875 L 97 -195.421875 L 97 -165.890625 L 66.078125 -165.890625 L 66.078125 0 Z M 35.140625 0 "/></g></g></g><g fill="#f9b054" fill-opacity="1"><g transform="translate(424.459672, 207.186746)"><g><path d="M 11.25 0 L 11.25 -195.421875 L 42.171875 -195.421875 L 42.171875 0 Z M 11.25 0 "/></g></g></g><g fill="#f9b054" fill-opacity="1"><g transform="translate(477.882576, 207.186746)"><g><path d="M 97 -168.703125 L 97 -26.71875 C 97 -19.21875 94.515625 -12.890625 89.546875 -7.734375 C 84.585938 -2.578125 78.640625 0 71.703125 0 L 36.546875 0 C 29.617188 0 23.671875 -2.625 18.703125 -7.875 C 13.734375 -13.125 11.25 -19.40625 11.25 -26.71875 L 11.25 -168.703125 C 11.25 -176.203125 13.734375 -182.53125 18.703125 -187.6875 C 23.671875 -192.84375 29.617188 -195.421875 36.546875 -195.421875 L 71.703125 -195.421875 C 78.640625 -195.421875 84.585938 -192.84375 89.546875 -187.6875 C 94.515625 -182.53125 97 -176.203125 97 -168.703125 Z M 66.078125 -29.515625 L 66.078125 -165.890625 L 42.171875 -165.890625 L 42.171875 -29.515625 Z M 66.078125 -29.515625 "/></g></g></g><g fill="#f9b054" fill-opacity="1"><g transform="translate(586.134278, 207.186746)"><g><path d="M 42.171875 0 L 11.25 0 L 11.25 -195.421875 L 42.171875 -195.421875 L 42.171875 -181.078125 C 43.296875 -183.515625 44.796875 -185.765625 46.671875 -187.828125 C 51.734375 -192.890625 57.734375 -195.421875 64.671875 -195.421875 L 71.703125 -195.421875 C 78.640625 -195.421875 84.585938 -192.84375 89.546875 -187.6875 C 94.515625 -182.53125 97 -176.203125 97 -168.703125 L 97 0 L 66.078125 0 L 66.078125 -165.890625 L 42.171875 -165.890625 Z M 42.171875 0 "/></g></g></g><g fill="#f9b054" fill-opacity="1"><g transform="translate(694.38598, 207.186746)"><g><path d="M 11.25 -168.703125 C 11.25 -176.390625 13.734375 -182.765625 18.703125 -187.828125 C 23.671875 -192.890625 29.617188 -195.421875 36.546875 -195.421875 L 71.703125 -195.421875 C 78.640625 -195.421875 84.585938 -192.84375 89.546875 -187.6875 C 94.515625 -182.53125 97 -176.203125 97 -168.703125 L 97 -160.265625 L 66.078125 -144.796875 L 66.078125 -165.890625 L 42.171875 -165.890625 L 42.171875 -113.875 L 97 -141.984375 L 97 -26.71875 C 97 -19.40625 94.515625 -13.125 89.546875 -7.875 C 84.585938 -2.625 78.640625 0 71.703125 0 L 36.546875 0 C 29.617188 0 23.671875 -2.578125 18.703125 -7.734375 C 13.734375 -12.890625 11.25 -19.21875 11.25 -26.71875 L 11.25 -44.984375 L 42.171875 -60.453125 L 42.171875 -29.515625 L 66.078125 -29.515625 L 66.078125 -91.375 L 11.25 -63.265625 Z M 11.25 -168.703125 "/></g></g></g></g></g></svg>