<svg xmlns="http://www.w3.org/2000/svg" xmlns:xlink="http://www.w3.org/1999/xlink" width="1200" zoomAndPan="magnify" viewBox="0 0 900 225" height="300" preserveAspectRatio="xMidYMid meet" version="1.0"><defs><g/><clipPath id="62f84f5fc4"><rect x="0" width="897" y="0" height="215"/></clipPath></defs><g transform="matrix(1, 0, 0, 1, 0, 10)"><g clip-path="url(#62f84f5fc4)"><g fill="#0057ff" fill-opacity="0.302"><g transform="translate(12.649124, 187.742884)"><g><path d="M 54.625 -44.15625 L 80.1875 -56.953125 L 80.1875 -22.078125 C 80.1875 -15.878906 78.132812 -10.648438 74.03125 -6.390625 C 69.925781 -2.128906 65.003906 0 59.265625 0 L 30.21875 0 C 24.476562 0 19.554688 -2.164062 15.453125 -6.5 C 11.347656 -10.84375 9.296875 -16.035156 9.296875 -22.078125 L 9.296875 -139.46875 C 9.296875 -145.664062 11.347656 -150.894531 15.453125 -155.15625 C 19.554688 -159.414062 24.476562 -161.546875 30.21875 -161.546875 L 59.265625 -161.546875 C 65.003906 -161.546875 69.925781 -159.414062 74.03125 -155.15625 C 78.132812 -150.894531 80.1875 -145.664062 80.1875 -139.46875 L 80.1875 -125.515625 L 54.625 -112.734375 L 54.625 -137.140625 L 34.859375 -137.140625 L 34.859375 -24.40625 L 54.625 -24.40625 Z M 54.625 -44.15625 "/></g></g></g><g fill="#0057ff" fill-opacity="0.302"><g transform="translate(99.812522, 187.742884)"><g><path d="M 80.1875 -139.46875 L 80.1875 -22.078125 C 80.1875 -15.878906 78.132812 -10.648438 74.03125 -6.390625 C 69.925781 -2.128906 65.003906 0 59.265625 0 L 30.21875 0 C 24.476562 0 19.554688 -2.164062 15.453125 -6.5 C 11.347656 -10.84375 9.296875 -16.035156 9.296875 -22.078125 L 9.296875 -139.46875 C 9.296875 -145.664062 11.347656 -150.894531 15.453125 -155.15625 C 19.554688 -159.414062 24.476562 -161.546875 30.21875 -161.546875 L 59.265625 -161.546875 C 65.003906 -161.546875 69.925781 -159.414062 74.03125 -155.15625 C 78.132812 -150.894531 80.1875 -145.664062 80.1875 -139.46875 Z M 54.625 -24.40625 L 54.625 -137.140625 L 34.859375 -137.140625 L 34.859375 -24.40625 Z M 54.625 -24.40625 "/></g></g></g><g fill="#0057ff" fill-opacity="0.302"><g transform="translate(189.300294, 187.742884)"><g><path d="M 9.296875 0 L 9.296875 -161.546875 L 34.859375 -161.546875 L 34.859375 -24.40625 L 72.0625 -24.40625 L 72.0625 0 Z M 9.296875 0 "/></g></g></g><g fill="#0057ff" fill-opacity="0.302"><g transform="translate(264.84191, 187.742884)"><g><path d="M 9.296875 0 L 9.296875 -161.546875 L 34.859375 -161.546875 L 34.859375 -24.40625 L 72.0625 -24.40625 L 72.0625 0 Z M 9.296875 0 "/></g></g></g><g fill="#0057ff" fill-opacity="0.302"><g transform="translate(340.383525, 187.742884)"><g><path d="M 70.890625 -137.140625 L 34.859375 -137.140625 L 34.859375 -93.671875 L 70.890625 -112.265625 L 70.890625 -83.671875 L 34.859375 -65.078125 L 34.859375 -24.40625 L 70.890625 -24.40625 L 70.890625 0 L 9.296875 0 L 9.296875 -139.46875 C 9.296875 -145.664062 11.347656 -150.894531 15.453125 -155.15625 C 19.554688 -159.414062 24.476562 -161.546875 30.21875 -161.546875 L 70.890625 -161.546875 Z M 70.890625 -137.140625 "/></g></g></g><g fill="#0057ff" fill-opacity="0.302"><g transform="translate(418.249515, 187.742884)"><g><path d="M 54.625 -44.15625 L 80.1875 -56.953125 L 80.1875 -22.078125 C 80.1875 -15.878906 78.132812 -10.648438 74.03125 -6.390625 C 69.925781 -2.128906 65.003906 0 59.265625 0 L 30.21875 0 C 24.476562 0 19.554688 -2.164062 15.453125 -6.5 C 11.347656 -10.84375 9.296875 -16.035156 9.296875 -22.078125 L 9.296875 -139.46875 C 9.296875 -145.664062 11.347656 -150.894531 15.453125 -155.15625 C 19.554688 -159.414062 24.476562 -161.546875 30.21875 -161.546875 L 59.265625 -161.546875 C 65.003906 -161.546875 69.925781 -159.414062 74.03125 -155.15625 C 78.132812 -150.894531 80.1875 -145.664062 80.1875 -139.46875 L 80.1875 -125.515625 L 54.625 -112.734375 L 54.625 -137.140625 L 34.859375 -137.140625 L 34.859375 -24.40625 L 54.625 -24.40625 Z M 54.625 -44.15625 "/></g></g></g><g fill="#0057ff" fill-opacity="0.302"><g transform="translate(505.412913, 187.742884)"><g><path d="M 29.0625 0 L 29.0625 -137.140625 L 3.484375 -137.140625 L 3.484375 -161.546875 L 80.1875 -161.546875 L 80.1875 -137.140625 L 54.625 -137.140625 L 54.625 0 Z M 29.0625 0 "/></g></g></g><g fill="#0057ff" fill-opacity="0.302"><g transform="translate(589.089793, 187.742884)"><g><path d="M 9.296875 0 L 9.296875 -161.546875 L 34.859375 -161.546875 L 34.859375 0 Z M 9.296875 0 "/></g></g></g><g fill="#0057ff" fill-opacity="0.302"><g transform="translate(633.252578, 187.742884)"><g><path d="M 80.1875 -139.46875 L 80.1875 -22.078125 C 80.1875 -15.878906 78.132812 -10.648438 74.03125 -6.390625 C 69.925781 -2.128906 65.003906 0 59.265625 0 L 30.21875 0 C 24.476562 0 19.554688 -2.164062 15.453125 -6.5 C 11.347656 -10.84375 9.296875 -16.035156 9.296875 -22.078125 L 9.296875 -139.46875 C 9.296875 -145.664062 11.347656 -150.894531 15.453125 -155.15625 C 19.554688 -159.414062 24.476562 -161.546875 30.21875 -161.546875 L 59.265625 -161.546875 C 65.003906 -161.546875 69.925781 -159.414062 74.03125 -155.15625 C 78.132812 -150.894531 80.1875 -145.664062 80.1875 -139.46875 Z M 54.625 -24.40625 L 54.625 -137.140625 L 34.859375 -137.140625 L 34.859375 -24.40625 Z M 54.625 -24.40625 "/></g></g></g><g fill="#0057ff" fill-opacity="0.302"><g transform="translate(722.740381, 187.742884)"><g><path d="M 34.859375 0 L 9.296875 0 L 9.296875 -161.546875 L 34.859375 -161.546875 L 34.859375 -149.6875 C 35.796875 -151.707031 37.035156 -153.566406 38.578125 -155.265625 C 42.765625 -159.453125 47.722656 -161.546875 53.453125 -161.546875 L 59.265625 -161.546875 C 65.003906 -161.546875 69.925781 -159.414062 74.03125 -155.15625 C 78.132812 -150.894531 80.1875 -145.664062 80.1875 -139.46875 L 80.1875 0 L 54.625 0 L 54.625 -137.140625 L 34.859375 -137.140625 Z M 34.859375 0 "/></g></g></g><g fill="#0057ff" fill-opacity="0.302"><g transform="translate(812.228123, 187.742884)"><g><path d="M 9.296875 -139.46875 C 9.296875 -145.820312 11.347656 -151.085938 15.453125 -155.265625 C 19.554688 -159.453125 24.476562 -161.546875 30.21875 -161.546875 L 59.265625 -161.546875 C 65.003906 -161.546875 69.925781 -159.414062 74.03125 -155.15625 C 78.132812 -150.894531 80.1875 -145.664062 80.1875 -139.46875 L 80.1875 -132.484375 L 54.625 -119.703125 L 54.625 -137.140625 L 34.859375 -137.140625 L 34.859375 -94.140625 L 80.1875 -117.375 L 80.1875 -22.078125 C 80.1875 -16.035156 78.132812 -10.84375 74.03125 -6.5 C 69.925781 -2.164062 65.003906 0 59.265625 0 L 30.21875 0 C 24.476562 0 19.554688 -2.128906 15.453125 -6.390625 C 11.347656 -10.648438 9.296875 -15.878906 9.296875 -22.078125 L 9.296875 -37.1875 L 34.859375 -49.96875 L 34.859375 -24.40625 L 54.625 -24.40625 L 54.625 -75.546875 L 9.296875 -52.296875 Z M 9.296875 -139.46875 "/></g></g></g><g fill="#0057ff" fill-opacity="0.502"><g transform="translate(4.991264, 181.972271)"><g><path d="M 54.625 -44.15625 L 80.1875 -56.953125 L 80.1875 -22.078125 C 80.1875 -15.878906 78.132812 -10.648438 74.03125 -6.390625 C 69.925781 -2.128906 65.003906 0 59.265625 0 L 30.21875 0 C 24.476562 0 19.554688 -2.164062 15.453125 -6.5 C 11.347656 -10.84375 9.296875 -16.035156 9.296875 -22.078125 L 9.296875 -139.46875 C 9.296875 -145.664062 11.347656 -150.894531 15.453125 -155.15625 C 19.554688 -159.414062 24.476562 -161.546875 30.21875 -161.546875 L 59.265625 -161.546875 C 65.003906 -161.546875 69.925781 -159.414062 74.03125 -155.15625 C 78.132812 -150.894531 80.1875 -145.664062 80.1875 -139.46875 L 80.1875 -125.515625 L 54.625 -112.734375 L 54.625 -137.140625 L 34.859375 -137.140625 L 34.859375 -24.40625 L 54.625 -24.40625 Z M 54.625 -44.15625 "/></g></g></g><g fill="#0057ff" fill-opacity="0.502"><g transform="translate(92.154661, 181.972271)"><g><path d="M 80.1875 -139.46875 L 80.1875 -22.078125 C 80.1875 -15.878906 78.132812 -10.648438 74.03125 -6.390625 C 69.925781 -2.128906 65.003906 0 59.265625 0 L 30.21875 0 C 24.476562 0 19.554688 -2.164062 15.453125 -6.5 C 11.347656 -10.84375 9.296875 -16.035156 9.296875 -22.078125 L 9.296875 -139.46875 C 9.296875 -145.664062 11.347656 -150.894531 15.453125 -155.15625 C 19.554688 -159.414062 24.476562 -161.546875 30.21875 -161.546875 L 59.265625 -161.546875 C 65.003906 -161.546875 69.925781 -159.414062 74.03125 -155.15625 C 78.132812 -150.894531 80.1875 -145.664062 80.1875 -139.46875 Z M 54.625 -24.40625 L 54.625 -137.140625 L 34.859375 -137.140625 L 34.859375 -24.40625 Z M 54.625 -24.40625 "/></g></g></g><g fill="#0057ff" fill-opacity="0.502"><g transform="translate(181.642434, 181.972271)"><g><path d="M 9.296875 0 L 9.296875 -161.546875 L 34.859375 -161.546875 L 34.859375 -24.40625 L 72.0625 -24.40625 L 72.0625 0 Z M 9.296875 0 "/></g></g></g><g fill="#0057ff" fill-opacity="0.502"><g transform="translate(257.184049, 181.972271)"><g><path d="M 9.296875 0 L 9.296875 -161.546875 L 34.859375 -161.546875 L 34.859375 -24.40625 L 72.0625 -24.40625 L 72.0625 0 Z M 9.296875 0 "/></g></g></g><g fill="#0057ff" fill-opacity="0.502"><g transform="translate(332.725664, 181.972271)"><g><path d="M 70.890625 -137.140625 L 34.859375 -137.140625 L 34.859375 -93.671875 L 70.890625 -112.265625 L 70.890625 -83.671875 L 34.859375 -65.078125 L 34.859375 -24.40625 L 70.890625 -24.40625 L 70.890625 0 L 9.296875 0 L 9.296875 -139.46875 C 9.296875 -145.664062 11.347656 -150.894531 15.453125 -155.15625 C 19.554688 -159.414062 24.476562 -161.546875 30.21875 -161.546875 L 70.890625 -161.546875 Z M 70.890625 -137.140625 "/></g></g></g><g fill="#0057ff" fill-opacity="0.502"><g transform="translate(410.591654, 181.972271)"><g><path d="M 54.625 -44.15625 L 80.1875 -56.953125 L 80.1875 -22.078125 C 80.1875 -15.878906 78.132812 -10.648438 74.03125 -6.390625 C 69.925781 -2.128906 65.003906 0 59.265625 0 L 30.21875 0 C 24.476562 0 19.554688 -2.164062 15.453125 -6.5 C 11.347656 -10.84375 9.296875 -16.035156 9.296875 -22.078125 L 9.296875 -139.46875 C 9.296875 -145.664062 11.347656 -150.894531 15.453125 -155.15625 C 19.554688 -159.414062 24.476562 -161.546875 30.21875 -161.546875 L 59.265625 -161.546875 C 65.003906 -161.546875 69.925781 -159.414062 74.03125 -155.15625 C 78.132812 -150.894531 80.1875 -145.664062 80.1875 -139.46875 L 80.1875 -125.515625 L 54.625 -112.734375 L 54.625 -137.140625 L 34.859375 -137.140625 L 34.859375 -24.40625 L 54.625 -24.40625 Z M 54.625 -44.15625 "/></g></g></g><g fill="#0057ff" fill-opacity="0.502"><g transform="translate(497.755052, 181.972271)"><g><path d="M 29.0625 0 L 29.0625 -137.140625 L 3.484375 -137.140625 L 3.484375 -161.546875 L 80.1875 -161.546875 L 80.1875 -137.140625 L 54.625 -137.140625 L 54.625 0 Z M 29.0625 0 "/></g></g></g><g fill="#0057ff" fill-opacity="0.502"><g transform="translate(581.431933, 181.972271)"><g><path d="M 9.296875 0 L 9.296875 -161.546875 L 34.859375 -161.546875 L 34.859375 0 Z M 9.296875 0 "/></g></g></g><g fill="#0057ff" fill-opacity="0.502"><g transform="translate(625.594718, 181.972271)"><g><path d="M 80.1875 -139.46875 L 80.1875 -22.078125 C 80.1875 -15.878906 78.132812 -10.648438 74.03125 -6.390625 C 69.925781 -2.128906 65.003906 0 59.265625 0 L 30.21875 0 C 24.476562 0 19.554688 -2.164062 15.453125 -6.5 C 11.347656 -10.84375 9.296875 -16.035156 9.296875 -22.078125 L 9.296875 -139.46875 C 9.296875 -145.664062 11.347656 -150.894531 15.453125 -155.15625 C 19.554688 -159.414062 24.476562 -161.546875 30.21875 -161.546875 L 59.265625 -161.546875 C 65.003906 -161.546875 69.925781 -159.414062 74.03125 -155.15625 C 78.132812 -150.894531 80.1875 -145.664062 80.1875 -139.46875 Z M 54.625 -24.40625 L 54.625 -137.140625 L 34.859375 -137.140625 L 34.859375 -24.40625 Z M 54.625 -24.40625 "/></g></g></g><g fill="#0057ff" fill-opacity="0.502"><g transform="translate(715.08252, 181.972271)"><g><path d="M 34.859375 0 L 9.296875 0 L 9.296875 -161.546875 L 34.859375 -161.546875 L 34.859375 -149.6875 C 35.796875 -151.707031 37.035156 -153.566406 38.578125 -155.265625 C 42.765625 -159.453125 47.722656 -161.546875 53.453125 -161.546875 L 59.265625 -161.546875 C 65.003906 -161.546875 69.925781 -159.414062 74.03125 -155.15625 C 78.132812 -150.894531 80.1875 -145.664062 80.1875 -139.46875 L 80.1875 0 L 54.625 0 L 54.625 -137.140625 L 34.859375 -137.140625 Z M 34.859375 0 "/></g></g></g><g fill="#0057ff" fill-opacity="0.502"><g transform="translate(804.570263, 181.972271)"><g><path d="M 9.296875 -139.46875 C 9.296875 -145.820312 11.347656 -151.085938 15.453125 -155.265625 C 19.554688 -159.453125 24.476562 -161.546875 30.21875 -161.546875 L 59.265625 -161.546875 C 65.003906 -161.546875 69.925781 -159.414062 74.03125 -155.15625 C 78.132812 -150.894531 80.1875 -145.664062 80.1875 -139.46875 L 80.1875 -132.484375 L 54.625 -119.703125 L 54.625 -137.140625 L 34.859375 -137.140625 L 34.859375 -94.140625 L 80.1875 -117.375 L 80.1875 -22.078125 C 80.1875 -16.035156 78.132812 -10.84375 74.03125 -6.5 C 69.925781 -2.164062 65.003906 0 59.265625 0 L 30.21875 0 C 24.476562 0 19.554688 -2.128906 15.453125 -6.390625 C 11.347656 -10.648438 9.296875 -15.878906 9.296875 -22.078125 L 9.296875 -37.1875 L 34.859375 -49.96875 L 34.859375 -24.40625 L 54.625 -24.40625 L 54.625 -75.546875 L 9.296875 -52.296875 Z M 9.296875 -139.46875 "/></g></g></g><g fill="#f9b054" fill-opacity="1"><g transform="translate(-2.666597, 176.201659)"><g><path d="M 54.625 -44.15625 L 80.1875 -56.953125 L 80.1875 -22.078125 C 80.1875 -15.878906 78.132812 -10.648438 74.03125 -6.390625 C 69.925781 -2.128906 65.003906 0 59.265625 0 L 30.21875 0 C 24.476562 0 19.554688 -2.164062 15.453125 -6.5 C 11.347656 -10.84375 9.296875 -16.035156 9.296875 -22.078125 L 9.296875 -139.46875 C 9.296875 -145.664062 11.347656 -150.894531 15.453125 -155.15625 C 19.554688 -159.414062 24.476562 -161.546875 30.21875 -161.546875 L 59.265625 -161.546875 C 65.003906 -161.546875 69.925781 -159.414062 74.03125 -155.15625 C 78.132812 -150.894531 80.1875 -145.664062 80.1875 -139.46875 L 80.1875 -125.515625 L 54.625 -112.734375 L 54.625 -137.140625 L 34.859375 -137.140625 L 34.859375 -24.40625 L 54.625 -24.40625 Z M 54.625 -44.15625 "/></g></g></g><g fill="#f9b054" fill-opacity="1"><g transform="translate(84.496801, 176.201659)"><g><path d="M 80.1875 -139.46875 L 80.1875 -22.078125 C 80.1875 -15.878906 78.132812 -10.648438 74.03125 -6.390625 C 69.925781 -2.128906 65.003906 0 59.265625 0 L 30.21875 0 C 24.476562 0 19.554688 -2.164062 15.453125 -6.5 C 11.347656 -10.84375 9.296875 -16.035156 9.296875 -22.078125 L 9.296875 -139.46875 C 9.296875 -145.664062 11.347656 -150.894531 15.453125 -155.15625 C 19.554688 -159.414062 24.476562 -161.546875 30.21875 -161.546875 L 59.265625 -161.546875 C 65.003906 -161.546875 69.925781 -159.414062 74.03125 -155.15625 C 78.132812 -150.894531 80.1875 -145.664062 80.1875 -139.46875 Z M 54.625 -24.40625 L 54.625 -137.140625 L 34.859375 -137.140625 L 34.859375 -24.40625 Z M 54.625 -24.40625 "/></g></g></g><g fill="#f9b054" fill-opacity="1"><g transform="translate(173.984574, 176.201659)"><g><path d="M 9.296875 0 L 9.296875 -161.546875 L 34.859375 -161.546875 L 34.859375 -24.40625 L 72.0625 -24.40625 L 72.0625 0 Z M 9.296875 0 "/></g></g></g><g fill="#f9b054" fill-opacity="1"><g transform="translate(249.526189, 176.201659)"><g><path d="M 9.296875 0 L 9.296875 -161.546875 L 34.859375 -161.546875 L 34.859375 -24.40625 L 72.0625 -24.40625 L 72.0625 0 Z M 9.296875 0 "/></g></g></g><g fill="#f9b054" fill-opacity="1"><g transform="translate(325.067804, 176.201659)"><g><path d="M 70.890625 -137.140625 L 34.859375 -137.140625 L 34.859375 -93.671875 L 70.890625 -112.265625 L 70.890625 -83.671875 L 34.859375 -65.078125 L 34.859375 -24.40625 L 70.890625 -24.40625 L 70.890625 0 L 9.296875 0 L 9.296875 -139.46875 C 9.296875 -145.664062 11.347656 -150.894531 15.453125 -155.15625 C 19.554688 -159.414062 24.476562 -161.546875 30.21875 -161.546875 L 70.890625 -161.546875 Z M 70.890625 -137.140625 "/></g></g></g><g fill="#f9b054" fill-opacity="1"><g transform="translate(402.933794, 176.201659)"><g><path d="M 54.625 -44.15625 L 80.1875 -56.953125 L 80.1875 -22.078125 C 80.1875 -15.878906 78.132812 -10.648438 74.03125 -6.390625 C 69.925781 -2.128906 65.003906 0 59.265625 0 L 30.21875 0 C 24.476562 0 19.554688 -2.164062 15.453125 -6.5 C 11.347656 -10.84375 9.296875 -16.035156 9.296875 -22.078125 L 9.296875 -139.46875 C 9.296875 -145.664062 11.347656 -150.894531 15.453125 -155.15625 C 19.554688 -159.414062 24.476562 -161.546875 30.21875 -161.546875 L 59.265625 -161.546875 C 65.003906 -161.546875 69.925781 -159.414062 74.03125 -155.15625 C 78.132812 -150.894531 80.1875 -145.664062 80.1875 -139.46875 L 80.1875 -125.515625 L 54.625 -112.734375 L 54.625 -137.140625 L 34.859375 -137.140625 L 34.859375 -24.40625 L 54.625 -24.40625 Z M 54.625 -44.15625 "/></g></g></g><g fill="#f9b054" fill-opacity="1"><g transform="translate(490.097192, 176.201659)"><g><path d="M 29.0625 0 L 29.0625 -137.140625 L 3.484375 -137.140625 L 3.484375 -161.546875 L 80.1875 -161.546875 L 80.1875 -137.140625 L 54.625 -137.140625 L 54.625 0 Z M 29.0625 0 "/></g></g></g><g fill="#f9b054" fill-opacity="1"><g transform="translate(573.774072, 176.201659)"><g><path d="M 9.296875 0 L 9.296875 -161.546875 L 34.859375 -161.546875 L 34.859375 0 Z M 9.296875 0 "/></g></g></g><g fill="#f9b054" fill-opacity="1"><g transform="translate(617.936857, 176.201659)"><g><path d="M 80.1875 -139.46875 L 80.1875 -22.078125 C 80.1875 -15.878906 78.132812 -10.648438 74.03125 -6.390625 C 69.925781 -2.128906 65.003906 0 59.265625 0 L 30.21875 0 C 24.476562 0 19.554688 -2.164062 15.453125 -6.5 C 11.347656 -10.84375 9.296875 -16.035156 9.296875 -22.078125 L 9.296875 -139.46875 C 9.296875 -145.664062 11.347656 -150.894531 15.453125 -155.15625 C 19.554688 -159.414062 24.476562 -161.546875 30.21875 -161.546875 L 59.265625 -161.546875 C 65.003906 -161.546875 69.925781 -159.414062 74.03125 -155.15625 C 78.132812 -150.894531 80.1875 -145.664062 80.1875 -139.46875 Z M 54.625 -24.40625 L 54.625 -137.140625 L 34.859375 -137.140625 L 34.859375 -24.40625 Z M 54.625 -24.40625 "/></g></g></g><g fill="#f9b054" fill-opacity="1"><g transform="translate(707.42466, 176.201659)"><g><path d="M 34.859375 0 L 9.296875 0 L 9.296875 -161.546875 L 34.859375 -161.546875 L 34.859375 -149.6875 C 35.796875 -151.707031 37.035156 -153.566406 38.578125 -155.265625 C 42.765625 -159.453125 47.722656 -161.546875 53.453125 -161.546875 L 59.265625 -161.546875 C 65.003906 -161.546875 69.925781 -159.414062 74.03125 -155.15625 C 78.132812 -150.894531 80.1875 -145.664062 80.1875 -139.46875 L 80.1875 0 L 54.625 0 L 54.625 -137.140625 L 34.859375 -137.140625 Z M 34.859375 0 "/></g></g></g><g fill="#f9b054" fill-opacity="1"><g transform="translate(796.912402, 176.201659)"><g><path d="M 9.296875 -139.46875 C 9.296875 -145.820312 11.347656 -151.085938 15.453125 -155.265625 C 19.554688 -159.453125 24.476562 -161.546875 30.21875 -161.546875 L 59.265625 -161.546875 C 65.003906 -161.546875 69.925781 -159.414062 74.03125 -155.15625 C 78.132812 -150.894531 80.1875 -145.664062 80.1875 -139.46875 L 80.1875 -132.484375 L 54.625 -119.703125 L 54.625 -137.140625 L 34.859375 -137.140625 L 34.859375 -94.140625 L 80.1875 -117.375 L 80.1875 -22.078125 C 80.1875 -16.035156 78.132812 -10.84375 74.03125 -6.5 C 69.925781 -2.164062 65.003906 0 59.265625 0 L 30.21875 0 C 24.476562 0 19.554688 -2.128906 15.453125 -6.390625 C 11.347656 -10.648438 9.296875 -15.878906 9.296875 -22.078125 L 9.296875 -37.1875 L 34.859375 -49.96875 L 34.859375 -24.40625 L 54.625 -24.40625 L 54.625 -75.546875 L 9.296875 -52.296875 Z M 9.296875 -139.46875 "/></g></g></g></g></g></svg>