<svg xmlns="http://www.w3.org/2000/svg" xmlns:xlink="http://www.w3.org/1999/xlink" width="1000" zoomAndPan="magnify" viewBox="0 0 750 225" height="300" preserveAspectRatio="xMidYMid meet" version="1.0"><defs><g/><clipPath id="5067b5804d"><rect x="0" width="750" y="0" height="225"/></clipPath></defs><g transform="matrix(1, 0, 0, 1, 0, -0.000000000000008531)"><g clip-path="url(#5067b5804d)"><g fill="#0057ff" fill-opacity="0.302"><g transform="translate(9.08279, 220.926673)"><g><path d="M 43.28125 0 L 11.546875 0 L 11.546875 -173.109375 C 11.546875 -180.804688 14.09375 -187.296875 19.1875 -192.578125 C 24.28125 -197.867188 30.382812 -200.515625 37.5 -200.515625 L 88 -200.515625 L 88 -170.21875 L 43.28125 -170.21875 L 43.28125 -116.265625 L 88 -139.359375 L 88 -103.859375 L 43.28125 -80.78125 Z M 43.28125 0 "/></g></g></g><g fill="#0057ff" fill-opacity="0.302"><g transform="translate(101.408001, 220.926673)"><g><path d="M 11.546875 0 L 11.546875 -173.109375 C 11.546875 -180.804688 14.09375 -187.296875 19.1875 -192.578125 C 24.28125 -197.867188 30.382812 -200.515625 37.5 -200.515625 L 73.578125 -200.515625 C 80.691406 -200.515625 86.796875 -197.867188 91.890625 -192.578125 C 96.984375 -187.296875 99.53125 -180.804688 99.53125 -173.109375 L 99.53125 0 L 67.796875 0 L 67.796875 -85.109375 L 43.28125 -72.125 L 43.28125 0 Z M 43.28125 -107.609375 L 67.796875 -120.59375 L 67.796875 -170.21875 L 43.28125 -170.21875 Z M 43.28125 -107.609375 "/></g></g></g><g fill="#0057ff" fill-opacity="0.302"><g transform="translate(212.486777, 220.926673)"><g><path d="M 67.796875 -54.8125 L 99.53125 -70.6875 L 99.53125 -27.40625 C 99.53125 -19.71875 96.984375 -13.226562 91.890625 -7.9375 C 86.796875 -2.644531 80.691406 0 73.578125 0 L 37.5 0 C 30.382812 0 24.28125 -2.691406 19.1875 -8.078125 C 14.09375 -13.460938 11.546875 -19.90625 11.546875 -27.40625 L 11.546875 -173.109375 C 11.546875 -180.804688 14.09375 -187.296875 19.1875 -192.578125 C 24.28125 -197.867188 30.382812 -200.515625 37.5 -200.515625 L 73.578125 -200.515625 C 80.691406 -200.515625 86.796875 -197.867188 91.890625 -192.578125 C 96.984375 -187.296875 99.53125 -180.804688 99.53125 -173.109375 L 99.53125 -155.796875 L 67.796875 -139.9375 L 67.796875 -170.21875 L 43.28125 -170.21875 L 43.28125 -30.296875 L 67.796875 -30.296875 Z M 67.796875 -54.8125 "/></g></g></g><g fill="#0057ff" fill-opacity="0.302"><g transform="translate(320.680388, 220.926673)"><g><path d="M 36.0625 0 L 36.0625 -170.21875 L 4.328125 -170.21875 L 4.328125 -200.515625 L 99.53125 -200.515625 L 99.53125 -170.21875 L 67.796875 -170.21875 L 67.796875 0 Z M 36.0625 0 "/></g></g></g><g fill="#0057ff" fill-opacity="0.302"><g transform="translate(424.546255, 220.926673)"><g><path d="M 99.53125 -173.109375 L 99.53125 -27.40625 C 99.53125 -19.71875 96.984375 -13.226562 91.890625 -7.9375 C 86.796875 -2.644531 80.691406 0 73.578125 0 L 37.5 0 C 30.382812 0 24.28125 -2.691406 19.1875 -8.078125 C 14.09375 -13.460938 11.546875 -19.90625 11.546875 -27.40625 L 11.546875 -173.109375 C 11.546875 -180.804688 14.09375 -187.296875 19.1875 -192.578125 C 24.28125 -197.867188 30.382812 -200.515625 37.5 -200.515625 L 73.578125 -200.515625 C 80.691406 -200.515625 86.796875 -197.867188 91.890625 -192.578125 C 96.984375 -187.296875 99.53125 -180.804688 99.53125 -173.109375 Z M 67.796875 -30.296875 L 67.796875 -170.21875 L 43.28125 -170.21875 L 43.28125 -30.296875 Z M 67.796875 -30.296875 "/></g></g></g><g fill="#0057ff" fill-opacity="0.302"><g transform="translate(535.625031, 220.926673)"><g><path d="M 83.671875 0 L 50.484375 -75.015625 L 43.28125 -71.265625 L 43.28125 0 L 11.546875 0 L 11.546875 -200.515625 L 73.578125 -200.515625 C 80.691406 -200.515625 86.796875 -197.867188 91.890625 -192.578125 C 96.984375 -187.296875 99.53125 -180.804688 99.53125 -173.109375 L 99.53125 -100.109375 L 78.46875 -89.4375 L 118.296875 0 Z M 67.796875 -119.734375 L 67.796875 -170.21875 L 43.28125 -170.21875 L 43.28125 -106.75 Z M 67.796875 -119.734375 "/></g></g></g><g fill="#0057ff" fill-opacity="0.302"><g transform="translate(646.703807, 220.926673)"><g><path d="M 11.546875 -200.515625 L 43.28125 -200.515625 L 43.28125 -116.265625 L 67.796875 -129.25 L 67.796875 -200.515625 L 99.53125 -200.515625 L 99.53125 -27.40625 C 99.53125 -19.71875 96.984375 -13.226562 91.890625 -7.9375 C 86.796875 -2.644531 80.691406 0 73.578125 0 L 37.5 0 C 30.382812 0 24.28125 -2.691406 19.1875 -8.078125 C 14.09375 -13.460938 11.546875 -19.90625 11.546875 -27.40625 L 11.546875 -37.5 L 43.28125 -53.375 L 43.28125 -30.296875 L 67.796875 -30.296875 L 67.796875 -93.765625 L 11.546875 -64.921875 Z M 11.546875 -200.515625 "/></g></g></g><g fill="#0057ff" fill-opacity="0.502"><g transform="translate(-0.422374, 213.764018)"><g><path d="M 43.28125 0 L 11.546875 0 L 11.546875 -173.109375 C 11.546875 -180.804688 14.09375 -187.296875 19.1875 -192.578125 C 24.28125 -197.867188 30.382812 -200.515625 37.5 -200.515625 L 88 -200.515625 L 88 -170.21875 L 43.28125 -170.21875 L 43.28125 -116.265625 L 88 -139.359375 L 88 -103.859375 L 43.28125 -80.78125 Z M 43.28125 0 "/></g></g></g><g fill="#0057ff" fill-opacity="0.502"><g transform="translate(91.902838, 213.764018)"><g><path d="M 11.546875 0 L 11.546875 -173.109375 C 11.546875 -180.804688 14.09375 -187.296875 19.1875 -192.578125 C 24.28125 -197.867188 30.382812 -200.515625 37.5 -200.515625 L 73.578125 -200.515625 C 80.691406 -200.515625 86.796875 -197.867188 91.890625 -192.578125 C 96.984375 -187.296875 99.53125 -180.804688 99.53125 -173.109375 L 99.53125 0 L 67.796875 0 L 67.796875 -85.109375 L 43.28125 -72.125 L 43.28125 0 Z M 43.28125 -107.609375 L 67.796875 -120.59375 L 67.796875 -170.21875 L 43.28125 -170.21875 Z M 43.28125 -107.609375 "/></g></g></g><g fill="#0057ff" fill-opacity="0.502"><g transform="translate(202.981614, 213.764018)"><g><path d="M 67.796875 -54.8125 L 99.53125 -70.6875 L 99.53125 -27.40625 C 99.53125 -19.71875 96.984375 -13.226562 91.890625 -7.9375 C 86.796875 -2.644531 80.691406 0 73.578125 0 L 37.5 0 C 30.382812 0 24.28125 -2.691406 19.1875 -8.078125 C 14.09375 -13.460938 11.546875 -19.90625 11.546875 -27.40625 L 11.546875 -173.109375 C 11.546875 -180.804688 14.09375 -187.296875 19.1875 -192.578125 C 24.28125 -197.867188 30.382812 -200.515625 37.5 -200.515625 L 73.578125 -200.515625 C 80.691406 -200.515625 86.796875 -197.867188 91.890625 -192.578125 C 96.984375 -187.296875 99.53125 -180.804688 99.53125 -173.109375 L 99.53125 -155.796875 L 67.796875 -139.9375 L 67.796875 -170.21875 L 43.28125 -170.21875 L 43.28125 -30.296875 L 67.796875 -30.296875 Z M 67.796875 -54.8125 "/></g></g></g><g fill="#0057ff" fill-opacity="0.502"><g transform="translate(311.175225, 213.764018)"><g><path d="M 36.0625 0 L 36.0625 -170.21875 L 4.328125 -170.21875 L 4.328125 -200.515625 L 99.53125 -200.515625 L 99.53125 -170.21875 L 67.796875 -170.21875 L 67.796875 0 Z M 36.0625 0 "/></g></g></g><g fill="#0057ff" fill-opacity="0.502"><g transform="translate(415.041091, 213.764018)"><g><path d="M 99.53125 -173.109375 L 99.53125 -27.40625 C 99.53125 -19.71875 96.984375 -13.226562 91.890625 -7.9375 C 86.796875 -2.644531 80.691406 0 73.578125 0 L 37.5 0 C 30.382812 0 24.28125 -2.691406 19.1875 -8.078125 C 14.09375 -13.460938 11.546875 -19.90625 11.546875 -27.40625 L 11.546875 -173.109375 C 11.546875 -180.804688 14.09375 -187.296875 19.1875 -192.578125 C 24.28125 -197.867188 30.382812 -200.515625 37.5 -200.515625 L 73.578125 -200.515625 C 80.691406 -200.515625 86.796875 -197.867188 91.890625 -192.578125 C 96.984375 -187.296875 99.53125 -180.804688 99.53125 -173.109375 Z M 67.796875 -30.296875 L 67.796875 -170.21875 L 43.28125 -170.21875 L 43.28125 -30.296875 Z M 67.796875 -30.296875 "/></g></g></g><g fill="#0057ff" fill-opacity="0.502"><g transform="translate(526.119867, 213.764018)"><g><path d="M 83.671875 0 L 50.484375 -75.015625 L 43.28125 -71.265625 L 43.28125 0 L 11.546875 0 L 11.546875 -200.515625 L 73.578125 -200.515625 C 80.691406 -200.515625 86.796875 -197.867188 91.890625 -192.578125 C 96.984375 -187.296875 99.53125 -180.804688 99.53125 -173.109375 L 99.53125 -100.109375 L 78.46875 -89.4375 L 118.296875 0 Z M 67.796875 -119.734375 L 67.796875 -170.21875 L 43.28125 -170.21875 L 43.28125 -106.75 Z M 67.796875 -119.734375 "/></g></g></g><g fill="#0057ff" fill-opacity="0.502"><g transform="translate(637.198643, 213.764018)"><g><path d="M 11.546875 -200.515625 L 43.28125 -200.515625 L 43.28125 -116.265625 L 67.796875 -129.25 L 67.796875 -200.515625 L 99.53125 -200.515625 L 99.53125 -27.40625 C 99.53125 -19.71875 96.984375 -13.226562 91.890625 -7.9375 C 86.796875 -2.644531 80.691406 0 73.578125 0 L 37.5 0 C 30.382812 0 24.28125 -2.691406 19.1875 -8.078125 C 14.09375 -13.460938 11.546875 -19.90625 11.546875 -27.40625 L 11.546875 -37.5 L 43.28125 -53.375 L 43.28125 -30.296875 L 67.796875 -30.296875 L 67.796875 -93.765625 L 11.546875 -64.921875 Z M 11.546875 -200.515625 "/></g></g></g><g fill="#f9b054" fill-opacity="1"><g transform="translate(-9.927537, 206.601363)"><g><path d="M 43.28125 0 L 11.546875 0 L 11.546875 -173.109375 C 11.546875 -180.804688 14.09375 -187.296875 19.1875 -192.578125 C 24.28125 -197.867188 30.382812 -200.515625 37.5 -200.515625 L 88 -200.515625 L 88 -170.21875 L 43.28125 -170.21875 L 43.28125 -116.265625 L 88 -139.359375 L 88 -103.859375 L 43.28125 -80.78125 Z M 43.28125 0 "/></g></g></g><g fill="#f9b054" fill-opacity="1"><g transform="translate(82.397674, 206.601363)"><g><path d="M 11.546875 0 L 11.546875 -173.109375 C 11.546875 -180.804688 14.09375 -187.296875 19.1875 -192.578125 C 24.28125 -197.867188 30.382812 -200.515625 37.5 -200.515625 L 73.578125 -200.515625 C 80.691406 -200.515625 86.796875 -197.867188 91.890625 -192.578125 C 96.984375 -187.296875 99.53125 -180.804688 99.53125 -173.109375 L 99.53125 0 L 67.796875 0 L 67.796875 -85.109375 L 43.28125 -72.125 L 43.28125 0 Z M 43.28125 -107.609375 L 67.796875 -120.59375 L 67.796875 -170.21875 L 43.28125 -170.21875 Z M 43.28125 -107.609375 "/></g></g></g><g fill="#f9b054" fill-opacity="1"><g transform="translate(193.47645, 206.601363)"><g><path d="M 67.796875 -54.8125 L 99.53125 -70.6875 L 99.53125 -27.40625 C 99.53125 -19.71875 96.984375 -13.226562 91.890625 -7.9375 C 86.796875 -2.644531 80.691406 0 73.578125 0 L 37.5 0 C 30.382812 0 24.28125 -2.691406 19.1875 -8.078125 C 14.09375 -13.460938 11.546875 -19.90625 11.546875 -27.40625 L 11.546875 -173.109375 C 11.546875 -180.804688 14.09375 -187.296875 19.1875 -192.578125 C 24.28125 -197.867188 30.382812 -200.515625 37.5 -200.515625 L 73.578125 -200.515625 C 80.691406 -200.515625 86.796875 -197.867188 91.890625 -192.578125 C 96.984375 -187.296875 99.53125 -180.804688 99.53125 -173.109375 L 99.53125 -155.796875 L 67.796875 -139.9375 L 67.796875 -170.21875 L 43.28125 -170.21875 L 43.28125 -30.296875 L 67.796875 -30.296875 Z M 67.796875 -54.8125 "/></g></g></g><g fill="#f9b054" fill-opacity="1"><g transform="translate(301.670061, 206.601363)"><g><path d="M 36.0625 0 L 36.0625 -170.21875 L 4.328125 -170.21875 L 4.328125 -200.515625 L 99.53125 -200.515625 L 99.53125 -170.21875 L 67.796875 -170.21875 L 67.796875 0 Z M 36.0625 0 "/></g></g></g><g fill="#f9b054" fill-opacity="1"><g transform="translate(405.535928, 206.601363)"><g><path d="M 99.53125 -173.109375 L 99.53125 -27.40625 C 99.53125 -19.71875 96.984375 -13.226562 91.890625 -7.9375 C 86.796875 -2.644531 80.691406 0 73.578125 0 L 37.5 0 C 30.382812 0 24.28125 -2.691406 19.1875 -8.078125 C 14.09375 -13.460938 11.546875 -19.90625 11.546875 -27.40625 L 11.546875 -173.109375 C 11.546875 -180.804688 14.09375 -187.296875 19.1875 -192.578125 C 24.28125 -197.867188 30.382812 -200.515625 37.5 -200.515625 L 73.578125 -200.515625 C 80.691406 -200.515625 86.796875 -197.867188 91.890625 -192.578125 C 96.984375 -187.296875 99.53125 -180.804688 99.53125 -173.109375 Z M 67.796875 -30.296875 L 67.796875 -170.21875 L 43.28125 -170.21875 L 43.28125 -30.296875 Z M 67.796875 -30.296875 "/></g></g></g><g fill="#f9b054" fill-opacity="1"><g transform="translate(516.614704, 206.601363)"><g><path d="M 83.671875 0 L 50.484375 -75.015625 L 43.28125 -71.265625 L 43.28125 0 L 11.546875 0 L 11.546875 -200.515625 L 73.578125 -200.515625 C 80.691406 -200.515625 86.796875 -197.867188 91.890625 -192.578125 C 96.984375 -187.296875 99.53125 -180.804688 99.53125 -173.109375 L 99.53125 -100.109375 L 78.46875 -89.4375 L 118.296875 0 Z M 67.796875 -119.734375 L 67.796875 -170.21875 L 43.28125 -170.21875 L 43.28125 -106.75 Z M 67.796875 -119.734375 "/></g></g></g><g fill="#f9b054" fill-opacity="1"><g transform="translate(627.69348, 206.601363)"><g><path d="M 11.546875 -200.515625 L 43.28125 -200.515625 L 43.28125 -116.265625 L 67.796875 -129.25 L 67.796875 -200.515625 L 99.53125 -200.515625 L 99.53125 -27.40625 C 99.53125 -19.71875 96.984375 -13.226562 91.890625 -7.9375 C 86.796875 -2.644531 80.691406 0 73.578125 0 L 37.5 0 C 30.382812 0 24.28125 -2.691406 19.1875 -8.078125 C 14.09375 -13.460938 11.546875 -19.90625 11.546875 -27.40625 L 11.546875 -37.5 L 43.28125 -53.375 L 43.28125 -30.296875 L 67.796875 -30.296875 L 67.796875 -93.765625 L 11.546875 -64.921875 Z M 11.546875 -200.515625 "/></g></g></g></g></g></svg>