<svg xmlns="http://www.w3.org/2000/svg" xmlns:xlink="http://www.w3.org/1999/xlink" width="1200" zoomAndPan="magnify" viewBox="0 0 900 225" height="300" preserveAspectRatio="xMidYMid meet" version="1.0"><defs><g/><clipPath id="fbe1c6f6e6"><path d="M 843 24 L 897 24 L 897 170 L 843 170 Z M 843 24 " clip-rule="nonzero"/></clipPath><clipPath id="9f674c1950"><rect x="0" width="897" y="0" height="210"/></clipPath></defs><g transform="matrix(1, 0, 0, 1, 3, 7)"><g clip-path="url(#9f674c1950)"><g fill="#0057ff" fill-opacity="0.302"><g transform="translate(15.957065, 169.670442)"><g><path d="M 60.78125 -134.984375 C 61.625 -136.796875 62.8125 -138.472656 64.34375 -140.015625 C 67.976562 -143.785156 72.378906 -145.671875 77.546875 -145.671875 L 94.3125 -145.671875 C 99.488281 -145.671875 103.925781 -143.710938 107.625 -139.796875 C 111.332031 -135.890625 113.1875 -131.207031 113.1875 -125.75 L 113.1875 0 L 90.125 0 L 90.125 -123.65625 L 72.3125 -123.65625 L 72.3125 0 L 49.25 0 L 49.25 -123.65625 L 31.4375 -123.65625 L 31.4375 0 L 8.390625 0 L 8.390625 -125.75 C 8.390625 -131.34375 10.238281 -136.0625 13.9375 -139.90625 C 17.644531 -143.75 22.082031 -145.671875 27.25 -145.671875 L 44.015625 -145.671875 C 49.179688 -145.671875 53.648438 -143.710938 57.421875 -139.796875 C 58.828125 -138.265625 59.945312 -136.660156 60.78125 -134.984375 Z M 60.78125 -134.984375 "/></g></g></g><g fill="#0057ff" fill-opacity="0.302"><g transform="translate(137.517741, 169.670442)"><g><path d="M 8.390625 0 L 8.390625 -125.75 C 8.390625 -131.34375 10.238281 -136.0625 13.9375 -139.90625 C 17.644531 -143.75 22.082031 -145.671875 27.25 -145.671875 L 53.453125 -145.671875 C 58.617188 -145.671875 63.050781 -143.75 66.75 -139.90625 C 70.457031 -136.0625 72.3125 -131.34375 72.3125 -125.75 L 72.3125 0 L 49.25 0 L 49.25 -61.828125 L 31.4375 -52.40625 L 31.4375 0 Z M 31.4375 -78.171875 L 49.25 -87.609375 L 49.25 -123.65625 L 31.4375 -123.65625 Z M 31.4375 -78.171875 "/></g></g></g><g fill="#0057ff" fill-opacity="0.302"><g transform="translate(218.20889, 169.670442)"><g><path d="M 60.78125 0 L 36.671875 -54.5 L 31.4375 -51.765625 L 31.4375 0 L 8.390625 0 L 8.390625 -145.671875 L 53.453125 -145.671875 C 58.617188 -145.671875 63.050781 -143.75 66.75 -139.90625 C 70.457031 -136.0625 72.3125 -131.34375 72.3125 -125.75 L 72.3125 -72.734375 L 57.015625 -64.96875 L 85.9375 0 Z M 49.25 -86.984375 L 49.25 -123.65625 L 31.4375 -123.65625 L 31.4375 -77.546875 Z M 49.25 -86.984375 "/></g></g></g><g fill="#0057ff" fill-opacity="0.302"><g transform="translate(298.900039, 169.670442)"><g><path d="M 89.078125 0 L 64.5625 0 L 41.296875 -59.53125 L 31.4375 -39.1875 L 31.4375 0 L 8.390625 0 L 8.390625 -145.671875 L 31.4375 -145.671875 L 31.4375 -90.546875 L 56.171875 -145.671875 L 81.328125 -145.671875 L 53.859375 -86.5625 Z M 89.078125 0 "/></g></g></g><g fill="#0057ff" fill-opacity="0.302"><g transform="translate(383.78294, 169.670442)"><g><path d="M 63.921875 -123.65625 L 31.4375 -123.65625 L 31.4375 -84.46875 L 63.921875 -101.234375 L 63.921875 -75.453125 L 31.4375 -58.6875 L 31.4375 -22 L 63.921875 -22 L 63.921875 0 L 8.390625 0 L 8.390625 -125.75 C 8.390625 -131.34375 10.238281 -136.0625 13.9375 -139.90625 C 17.644531 -143.75 22.082031 -145.671875 27.25 -145.671875 L 63.921875 -145.671875 Z M 63.921875 -123.65625 "/></g></g></g><g fill="#0057ff" fill-opacity="0.302"><g transform="translate(453.994724, 169.670442)"><g><path d="M 26.203125 0 L 26.203125 -123.65625 L 3.140625 -123.65625 L 3.140625 -145.671875 L 72.3125 -145.671875 L 72.3125 -123.65625 L 49.25 -123.65625 L 49.25 0 Z M 26.203125 0 "/></g></g></g><g fill="#0057ff" fill-opacity="0.302"><g transform="translate(529.44619, 169.670442)"><g><path d="M 49.25 -84.890625 L 49.25 -123.65625 L 31.4375 -123.65625 L 31.4375 -75.453125 Z M 31.4375 0 L 8.390625 0 L 8.390625 -145.671875 L 53.453125 -145.671875 C 58.617188 -145.671875 63.050781 -143.75 66.75 -139.90625 C 70.457031 -136.0625 72.3125 -131.34375 72.3125 -125.75 L 72.3125 -70.640625 L 31.4375 -49.671875 Z M 31.4375 0 "/></g></g></g><g fill="#0057ff" fill-opacity="0.302"><g transform="translate(608.04145, 169.670442)"><g><path d="M 8.390625 0 L 8.390625 -145.671875 L 31.4375 -145.671875 L 31.4375 -22 L 64.96875 -22 L 64.96875 0 Z M 8.390625 0 "/></g></g></g><g fill="#0057ff" fill-opacity="0.302"><g transform="translate(676.157345, 169.670442)"><g><path d="M 8.390625 0 L 8.390625 -125.75 C 8.390625 -131.34375 10.238281 -136.0625 13.9375 -139.90625 C 17.644531 -143.75 22.082031 -145.671875 27.25 -145.671875 L 53.453125 -145.671875 C 58.617188 -145.671875 63.050781 -143.75 66.75 -139.90625 C 70.457031 -136.0625 72.3125 -131.34375 72.3125 -125.75 L 72.3125 0 L 49.25 0 L 49.25 -61.828125 L 31.4375 -52.40625 L 31.4375 0 Z M 31.4375 -78.171875 L 49.25 -87.609375 L 49.25 -123.65625 L 31.4375 -123.65625 Z M 31.4375 -78.171875 "/></g></g></g><g fill="#0057ff" fill-opacity="0.302"><g transform="translate(756.848467, 169.670442)"><g><path d="M 49.25 -39.828125 L 72.3125 -51.34375 L 72.3125 -19.90625 C 72.3125 -14.320312 70.457031 -9.609375 66.75 -5.765625 C 63.050781 -1.921875 58.617188 0 53.453125 0 L 27.25 0 C 22.082031 0 17.644531 -1.953125 13.9375 -5.859375 C 10.238281 -9.773438 8.390625 -14.457031 8.390625 -19.90625 L 8.390625 -125.75 C 8.390625 -131.34375 10.238281 -136.0625 13.9375 -139.90625 C 17.644531 -143.75 22.082031 -145.671875 27.25 -145.671875 L 53.453125 -145.671875 C 58.617188 -145.671875 63.050781 -143.75 66.75 -139.90625 C 70.457031 -136.0625 72.3125 -131.34375 72.3125 -125.75 L 72.3125 -113.1875 L 49.25 -101.65625 L 49.25 -123.65625 L 31.4375 -123.65625 L 31.4375 -22 L 49.25 -22 Z M 49.25 -39.828125 "/></g></g></g><g clip-path="url(#fbe1c6f6e6)"><g fill="#0057ff" fill-opacity="0.302"><g transform="translate(835.443782, 169.670442)"><g><path d="M 63.921875 -123.65625 L 31.4375 -123.65625 L 31.4375 -84.46875 L 63.921875 -101.234375 L 63.921875 -75.453125 L 31.4375 -58.6875 L 31.4375 -22 L 63.921875 -22 L 63.921875 0 L 8.390625 0 L 8.390625 -125.75 C 8.390625 -131.34375 10.238281 -136.0625 13.9375 -139.90625 C 17.644531 -143.75 22.082031 -145.671875 27.25 -145.671875 L 63.921875 -145.671875 Z M 63.921875 -123.65625 "/></g></g></g></g><g fill="#0057ff" fill-opacity="0.502"><g transform="translate(9.05197, 164.467079)"><g><path d="M 60.78125 -134.984375 C 61.625 -136.796875 62.8125 -138.472656 64.34375 -140.015625 C 67.976562 -143.785156 72.378906 -145.671875 77.546875 -145.671875 L 94.3125 -145.671875 C 99.488281 -145.671875 103.925781 -143.710938 107.625 -139.796875 C 111.332031 -135.890625 113.1875 -131.207031 113.1875 -125.75 L 113.1875 0 L 90.125 0 L 90.125 -123.65625 L 72.3125 -123.65625 L 72.3125 0 L 49.25 0 L 49.25 -123.65625 L 31.4375 -123.65625 L 31.4375 0 L 8.390625 0 L 8.390625 -125.75 C 8.390625 -131.34375 10.238281 -136.0625 13.9375 -139.90625 C 17.644531 -143.75 22.082031 -145.671875 27.25 -145.671875 L 44.015625 -145.671875 C 49.179688 -145.671875 53.648438 -143.710938 57.421875 -139.796875 C 58.828125 -138.265625 59.945312 -136.660156 60.78125 -134.984375 Z M 60.78125 -134.984375 "/></g></g></g><g fill="#0057ff" fill-opacity="0.502"><g transform="translate(130.612646, 164.467079)"><g><path d="M 8.390625 0 L 8.390625 -125.75 C 8.390625 -131.34375 10.238281 -136.0625 13.9375 -139.90625 C 17.644531 -143.75 22.082031 -145.671875 27.25 -145.671875 L 53.453125 -145.671875 C 58.617188 -145.671875 63.050781 -143.75 66.75 -139.90625 C 70.457031 -136.0625 72.3125 -131.34375 72.3125 -125.75 L 72.3125 0 L 49.25 0 L 49.25 -61.828125 L 31.4375 -52.40625 L 31.4375 0 Z M 31.4375 -78.171875 L 49.25 -87.609375 L 49.25 -123.65625 L 31.4375 -123.65625 Z M 31.4375 -78.171875 "/></g></g></g><g fill="#0057ff" fill-opacity="0.502"><g transform="translate(211.303795, 164.467079)"><g><path d="M 60.78125 0 L 36.671875 -54.5 L 31.4375 -51.765625 L 31.4375 0 L 8.390625 0 L 8.390625 -145.671875 L 53.453125 -145.671875 C 58.617188 -145.671875 63.050781 -143.75 66.75 -139.90625 C 70.457031 -136.0625 72.3125 -131.34375 72.3125 -125.75 L 72.3125 -72.734375 L 57.015625 -64.96875 L 85.9375 0 Z M 49.25 -86.984375 L 49.25 -123.65625 L 31.4375 -123.65625 L 31.4375 -77.546875 Z M 49.25 -86.984375 "/></g></g></g><g fill="#0057ff" fill-opacity="0.502"><g transform="translate(291.994944, 164.467079)"><g><path d="M 89.078125 0 L 64.5625 0 L 41.296875 -59.53125 L 31.4375 -39.1875 L 31.4375 0 L 8.390625 0 L 8.390625 -145.671875 L 31.4375 -145.671875 L 31.4375 -90.546875 L 56.171875 -145.671875 L 81.328125 -145.671875 L 53.859375 -86.5625 Z M 89.078125 0 "/></g></g></g><g fill="#0057ff" fill-opacity="0.502"><g transform="translate(376.877845, 164.467079)"><g><path d="M 63.921875 -123.65625 L 31.4375 -123.65625 L 31.4375 -84.46875 L 63.921875 -101.234375 L 63.921875 -75.453125 L 31.4375 -58.6875 L 31.4375 -22 L 63.921875 -22 L 63.921875 0 L 8.390625 0 L 8.390625 -125.75 C 8.390625 -131.34375 10.238281 -136.0625 13.9375 -139.90625 C 17.644531 -143.75 22.082031 -145.671875 27.25 -145.671875 L 63.921875 -145.671875 Z M 63.921875 -123.65625 "/></g></g></g><g fill="#0057ff" fill-opacity="0.502"><g transform="translate(447.089629, 164.467079)"><g><path d="M 26.203125 0 L 26.203125 -123.65625 L 3.140625 -123.65625 L 3.140625 -145.671875 L 72.3125 -145.671875 L 72.3125 -123.65625 L 49.25 -123.65625 L 49.25 0 Z M 26.203125 0 "/></g></g></g><g fill="#0057ff" fill-opacity="0.502"><g transform="translate(522.541095, 164.467079)"><g><path d="M 49.25 -84.890625 L 49.25 -123.65625 L 31.4375 -123.65625 L 31.4375 -75.453125 Z M 31.4375 0 L 8.390625 0 L 8.390625 -145.671875 L 53.453125 -145.671875 C 58.617188 -145.671875 63.050781 -143.75 66.75 -139.90625 C 70.457031 -136.0625 72.3125 -131.34375 72.3125 -125.75 L 72.3125 -70.640625 L 31.4375 -49.671875 Z M 31.4375 0 "/></g></g></g><g fill="#0057ff" fill-opacity="0.502"><g transform="translate(601.136355, 164.467079)"><g><path d="M 8.390625 0 L 8.390625 -145.671875 L 31.4375 -145.671875 L 31.4375 -22 L 64.96875 -22 L 64.96875 0 Z M 8.390625 0 "/></g></g></g><g fill="#0057ff" fill-opacity="0.502"><g transform="translate(669.25225, 164.467079)"><g><path d="M 8.390625 0 L 8.390625 -125.75 C 8.390625 -131.34375 10.238281 -136.0625 13.9375 -139.90625 C 17.644531 -143.75 22.082031 -145.671875 27.25 -145.671875 L 53.453125 -145.671875 C 58.617188 -145.671875 63.050781 -143.75 66.75 -139.90625 C 70.457031 -136.0625 72.3125 -131.34375 72.3125 -125.75 L 72.3125 0 L 49.25 0 L 49.25 -61.828125 L 31.4375 -52.40625 L 31.4375 0 Z M 31.4375 -78.171875 L 49.25 -87.609375 L 49.25 -123.65625 L 31.4375 -123.65625 Z M 31.4375 -78.171875 "/></g></g></g><g fill="#0057ff" fill-opacity="0.502"><g transform="translate(749.943372, 164.467079)"><g><path d="M 49.25 -39.828125 L 72.3125 -51.34375 L 72.3125 -19.90625 C 72.3125 -14.320312 70.457031 -9.609375 66.75 -5.765625 C 63.050781 -1.921875 58.617188 0 53.453125 0 L 27.25 0 C 22.082031 0 17.644531 -1.953125 13.9375 -5.859375 C 10.238281 -9.773438 8.390625 -14.457031 8.390625 -19.90625 L 8.390625 -125.75 C 8.390625 -131.34375 10.238281 -136.0625 13.9375 -139.90625 C 17.644531 -143.75 22.082031 -145.671875 27.25 -145.671875 L 53.453125 -145.671875 C 58.617188 -145.671875 63.050781 -143.75 66.75 -139.90625 C 70.457031 -136.0625 72.3125 -131.34375 72.3125 -125.75 L 72.3125 -113.1875 L 49.25 -101.65625 L 49.25 -123.65625 L 31.4375 -123.65625 L 31.4375 -22 L 49.25 -22 Z M 49.25 -39.828125 "/></g></g></g><g fill="#0057ff" fill-opacity="0.502"><g transform="translate(828.538687, 164.467079)"><g><path d="M 63.921875 -123.65625 L 31.4375 -123.65625 L 31.4375 -84.46875 L 63.921875 -101.234375 L 63.921875 -75.453125 L 31.4375 -58.6875 L 31.4375 -22 L 63.921875 -22 L 63.921875 0 L 8.390625 0 L 8.390625 -125.75 C 8.390625 -131.34375 10.238281 -136.0625 13.9375 -139.90625 C 17.644531 -143.75 22.082031 -145.671875 27.25 -145.671875 L 63.921875 -145.671875 Z M 63.921875 -123.65625 "/></g></g></g><g fill="#f9b054" fill-opacity="1"><g transform="translate(2.146875, 159.263717)"><g><path d="M 60.78125 -134.984375 C 61.625 -136.796875 62.8125 -138.472656 64.34375 -140.015625 C 67.976562 -143.785156 72.378906 -145.671875 77.546875 -145.671875 L 94.3125 -145.671875 C 99.488281 -145.671875 103.925781 -143.710938 107.625 -139.796875 C 111.332031 -135.890625 113.1875 -131.207031 113.1875 -125.75 L 113.1875 0 L 90.125 0 L 90.125 -123.65625 L 72.3125 -123.65625 L 72.3125 0 L 49.25 0 L 49.25 -123.65625 L 31.4375 -123.65625 L 31.4375 0 L 8.390625 0 L 8.390625 -125.75 C 8.390625 -131.34375 10.238281 -136.0625 13.9375 -139.90625 C 17.644531 -143.75 22.082031 -145.671875 27.25 -145.671875 L 44.015625 -145.671875 C 49.179688 -145.671875 53.648438 -143.710938 57.421875 -139.796875 C 58.828125 -138.265625 59.945312 -136.660156 60.78125 -134.984375 Z M 60.78125 -134.984375 "/></g></g></g><g fill="#f9b054" fill-opacity="1"><g transform="translate(123.707551, 159.263717)"><g><path d="M 8.390625 0 L 8.390625 -125.75 C 8.390625 -131.34375 10.238281 -136.0625 13.9375 -139.90625 C 17.644531 -143.75 22.082031 -145.671875 27.25 -145.671875 L 53.453125 -145.671875 C 58.617188 -145.671875 63.050781 -143.75 66.75 -139.90625 C 70.457031 -136.0625 72.3125 -131.34375 72.3125 -125.75 L 72.3125 0 L 49.25 0 L 49.25 -61.828125 L 31.4375 -52.40625 L 31.4375 0 Z M 31.4375 -78.171875 L 49.25 -87.609375 L 49.25 -123.65625 L 31.4375 -123.65625 Z M 31.4375 -78.171875 "/></g></g></g><g fill="#f9b054" fill-opacity="1"><g transform="translate(204.3987, 159.263717)"><g><path d="M 60.78125 0 L 36.671875 -54.5 L 31.4375 -51.765625 L 31.4375 0 L 8.390625 0 L 8.390625 -145.671875 L 53.453125 -145.671875 C 58.617188 -145.671875 63.050781 -143.75 66.75 -139.90625 C 70.457031 -136.0625 72.3125 -131.34375 72.3125 -125.75 L 72.3125 -72.734375 L 57.015625 -64.96875 L 85.9375 0 Z M 49.25 -86.984375 L 49.25 -123.65625 L 31.4375 -123.65625 L 31.4375 -77.546875 Z M 49.25 -86.984375 "/></g></g></g><g fill="#f9b054" fill-opacity="1"><g transform="translate(285.089849, 159.263717)"><g><path d="M 89.078125 0 L 64.5625 0 L 41.296875 -59.53125 L 31.4375 -39.1875 L 31.4375 0 L 8.390625 0 L 8.390625 -145.671875 L 31.4375 -145.671875 L 31.4375 -90.546875 L 56.171875 -145.671875 L 81.328125 -145.671875 L 53.859375 -86.5625 Z M 89.078125 0 "/></g></g></g><g fill="#f9b054" fill-opacity="1"><g transform="translate(369.97275, 159.263717)"><g><path d="M 63.921875 -123.65625 L 31.4375 -123.65625 L 31.4375 -84.46875 L 63.921875 -101.234375 L 63.921875 -75.453125 L 31.4375 -58.6875 L 31.4375 -22 L 63.921875 -22 L 63.921875 0 L 8.390625 0 L 8.390625 -125.75 C 8.390625 -131.34375 10.238281 -136.0625 13.9375 -139.90625 C 17.644531 -143.75 22.082031 -145.671875 27.25 -145.671875 L 63.921875 -145.671875 Z M 63.921875 -123.65625 "/></g></g></g><g fill="#f9b054" fill-opacity="1"><g transform="translate(440.184534, 159.263717)"><g><path d="M 26.203125 0 L 26.203125 -123.65625 L 3.140625 -123.65625 L 3.140625 -145.671875 L 72.3125 -145.671875 L 72.3125 -123.65625 L 49.25 -123.65625 L 49.25 0 Z M 26.203125 0 "/></g></g></g><g fill="#f9b054" fill-opacity="1"><g transform="translate(515.636, 159.263717)"><g><path d="M 49.25 -84.890625 L 49.25 -123.65625 L 31.4375 -123.65625 L 31.4375 -75.453125 Z M 31.4375 0 L 8.390625 0 L 8.390625 -145.671875 L 53.453125 -145.671875 C 58.617188 -145.671875 63.050781 -143.75 66.75 -139.90625 C 70.457031 -136.0625 72.3125 -131.34375 72.3125 -125.75 L 72.3125 -70.640625 L 31.4375 -49.671875 Z M 31.4375 0 "/></g></g></g><g fill="#f9b054" fill-opacity="1"><g transform="translate(594.23126, 159.263717)"><g><path d="M 8.390625 0 L 8.390625 -145.671875 L 31.4375 -145.671875 L 31.4375 -22 L 64.96875 -22 L 64.96875 0 Z M 8.390625 0 "/></g></g></g><g fill="#f9b054" fill-opacity="1"><g transform="translate(662.347155, 159.263717)"><g><path d="M 8.390625 0 L 8.390625 -125.75 C 8.390625 -131.34375 10.238281 -136.0625 13.9375 -139.90625 C 17.644531 -143.75 22.082031 -145.671875 27.25 -145.671875 L 53.453125 -145.671875 C 58.617188 -145.671875 63.050781 -143.75 66.75 -139.90625 C 70.457031 -136.0625 72.3125 -131.34375 72.3125 -125.75 L 72.3125 0 L 49.25 0 L 49.25 -61.828125 L 31.4375 -52.40625 L 31.4375 0 Z M 31.4375 -78.171875 L 49.25 -87.609375 L 49.25 -123.65625 L 31.4375 -123.65625 Z M 31.4375 -78.171875 "/></g></g></g><g fill="#f9b054" fill-opacity="1"><g transform="translate(743.038277, 159.263717)"><g><path d="M 49.25 -39.828125 L 72.3125 -51.34375 L 72.3125 -19.90625 C 72.3125 -14.320312 70.457031 -9.609375 66.75 -5.765625 C 63.050781 -1.921875 58.617188 0 53.453125 0 L 27.25 0 C 22.082031 0 17.644531 -1.953125 13.9375 -5.859375 C 10.238281 -9.773438 8.390625 -14.457031 8.390625 -19.90625 L 8.390625 -125.75 C 8.390625 -131.34375 10.238281 -136.0625 13.9375 -139.90625 C 17.644531 -143.75 22.082031 -145.671875 27.25 -145.671875 L 53.453125 -145.671875 C 58.617188 -145.671875 63.050781 -143.75 66.75 -139.90625 C 70.457031 -136.0625 72.3125 -131.34375 72.3125 -125.75 L 72.3125 -113.1875 L 49.25 -101.65625 L 49.25 -123.65625 L 31.4375 -123.65625 L 31.4375 -22 L 49.25 -22 Z M 49.25 -39.828125 "/></g></g></g><g fill="#f9b054" fill-opacity="1"><g transform="translate(821.633592, 159.263717)"><g><path d="M 63.921875 -123.65625 L 31.4375 -123.65625 L 31.4375 -84.46875 L 63.921875 -101.234375 L 63.921875 -75.453125 L 31.4375 -58.6875 L 31.4375 -22 L 63.921875 -22 L 63.921875 0 L 8.390625 0 L 8.390625 -125.75 C 8.390625 -131.34375 10.238281 -136.0625 13.9375 -139.90625 C 17.644531 -143.75 22.082031 -145.671875 27.25 -145.671875 L 63.921875 -145.671875 Z M 63.921875 -123.65625 "/></g></g></g></g></g></svg>