<svg xmlns="http://www.w3.org/2000/svg" xmlns:xlink="http://www.w3.org/1999/xlink" width="800" zoomAndPan="magnify" viewBox="0 0 600 225" height="300" preserveAspectRatio="xMidYMid meet" version="1.0"><defs><g/><clipPath id="b69a79aa82"><rect x="0" width="598" y="0" height="225"/></clipPath></defs><g transform="matrix(1, 0, 0, 1, 0, -0.000000000000008531)"><g clip-path="url(#b69a79aa82)"><g fill="#0057ff" fill-opacity="0.302"><g transform="translate(13.824297, 219.475775)"><g><path d="M 83.421875 -185.234375 C 84.566406 -187.734375 86.195312 -190.035156 88.3125 -192.140625 C 93.289062 -197.316406 99.328125 -199.90625 106.421875 -199.90625 L 129.4375 -199.90625 C 136.53125 -199.90625 142.617188 -197.21875 147.703125 -191.84375 C 152.785156 -186.476562 155.328125 -180.054688 155.328125 -172.578125 L 155.328125 0 L 123.6875 0 L 123.6875 -169.703125 L 99.234375 -169.703125 L 99.234375 0 L 67.59375 0 L 67.59375 -169.703125 L 43.140625 -169.703125 L 43.140625 0 L 11.5 0 L 11.5 -172.578125 C 11.5 -180.253906 14.039062 -186.726562 19.125 -192 C 24.207031 -197.269531 30.296875 -199.90625 37.390625 -199.90625 L 60.40625 -199.90625 C 67.5 -199.90625 73.632812 -197.222656 78.8125 -191.859375 C 80.726562 -189.742188 82.265625 -187.535156 83.421875 -185.234375 Z M 83.421875 -185.234375 "/></g></g></g><g fill="#0057ff" fill-opacity="0.302"><g transform="translate(180.652644, 219.475775)"><g><path d="M 99.234375 -172.578125 L 99.234375 -27.328125 C 99.234375 -19.648438 96.691406 -13.175781 91.609375 -7.90625 C 86.523438 -2.632812 80.4375 0 73.34375 0 L 37.390625 0 C 30.296875 0 24.207031 -2.679688 19.125 -8.046875 C 14.039062 -13.421875 11.5 -19.847656 11.5 -27.328125 L 11.5 -172.578125 C 11.5 -180.253906 14.039062 -186.726562 19.125 -192 C 24.207031 -197.269531 30.296875 -199.90625 37.390625 -199.90625 L 73.34375 -199.90625 C 80.4375 -199.90625 86.523438 -197.269531 91.609375 -192 C 96.691406 -186.726562 99.234375 -180.253906 99.234375 -172.578125 Z M 67.59375 -30.203125 L 67.59375 -169.703125 L 43.140625 -169.703125 L 43.140625 -30.203125 Z M 67.59375 -30.203125 "/></g></g></g><g fill="#0057ff" fill-opacity="0.302"><g transform="translate(291.392161, 219.475775)"><g><path d="M 99.234375 -172.578125 L 99.234375 -27.328125 C 99.234375 -19.648438 96.691406 -13.175781 91.609375 -7.90625 C 86.523438 -2.632812 80.4375 0 73.34375 0 L 37.390625 0 C 30.296875 0 24.207031 -2.679688 19.125 -8.046875 C 14.039062 -13.421875 11.5 -19.847656 11.5 -27.328125 L 11.5 -172.578125 C 11.5 -180.253906 14.039062 -186.726562 19.125 -192 C 24.207031 -197.269531 30.296875 -199.90625 37.390625 -199.90625 L 73.34375 -199.90625 C 80.4375 -199.90625 86.523438 -197.269531 91.609375 -192 C 96.691406 -186.726562 99.234375 -180.253906 99.234375 -172.578125 Z M 67.59375 -30.203125 L 67.59375 -169.703125 L 43.140625 -169.703125 L 43.140625 -30.203125 Z M 67.59375 -30.203125 "/></g></g></g><g fill="#0057ff" fill-opacity="0.302"><g transform="translate(402.131678, 219.475775)"><g><path d="M 71.328125 0 L 34.21875 0 L -1.15625 -199.90625 L 31.0625 -199.90625 L 52.625 -73.0625 L 74.5 -199.90625 L 106.703125 -199.90625 Z M 71.328125 0 "/></g></g></g><g fill="#0057ff" fill-opacity="0.302"><g transform="translate(507.118492, 219.475775)"><g><path d="M 87.734375 -169.703125 L 43.140625 -169.703125 L 43.140625 -115.921875 L 87.734375 -138.9375 L 87.734375 -103.546875 L 43.140625 -80.546875 L 43.140625 -30.203125 L 87.734375 -30.203125 L 87.734375 0 L 11.5 0 L 11.5 -172.578125 C 11.5 -180.253906 14.039062 -186.726562 19.125 -192 C 24.207031 -197.269531 30.296875 -199.90625 37.390625 -199.90625 L 87.734375 -199.90625 Z M 87.734375 -169.703125 "/></g></g></g><g fill="#0057ff" fill-opacity="0.502"><g transform="translate(4.348163, 212.334997)"><g><path d="M 83.421875 -185.234375 C 84.566406 -187.734375 86.195312 -190.035156 88.3125 -192.140625 C 93.289062 -197.316406 99.328125 -199.90625 106.421875 -199.90625 L 129.4375 -199.90625 C 136.53125 -199.90625 142.617188 -197.21875 147.703125 -191.84375 C 152.785156 -186.476562 155.328125 -180.054688 155.328125 -172.578125 L 155.328125 0 L 123.6875 0 L 123.6875 -169.703125 L 99.234375 -169.703125 L 99.234375 0 L 67.59375 0 L 67.59375 -169.703125 L 43.140625 -169.703125 L 43.140625 0 L 11.5 0 L 11.5 -172.578125 C 11.5 -180.253906 14.039062 -186.726562 19.125 -192 C 24.207031 -197.269531 30.296875 -199.90625 37.390625 -199.90625 L 60.40625 -199.90625 C 67.5 -199.90625 73.632812 -197.222656 78.8125 -191.859375 C 80.726562 -189.742188 82.265625 -187.535156 83.421875 -185.234375 Z M 83.421875 -185.234375 "/></g></g></g><g fill="#0057ff" fill-opacity="0.502"><g transform="translate(171.176511, 212.334997)"><g><path d="M 99.234375 -172.578125 L 99.234375 -27.328125 C 99.234375 -19.648438 96.691406 -13.175781 91.609375 -7.90625 C 86.523438 -2.632812 80.4375 0 73.34375 0 L 37.390625 0 C 30.296875 0 24.207031 -2.679688 19.125 -8.046875 C 14.039062 -13.421875 11.5 -19.847656 11.5 -27.328125 L 11.5 -172.578125 C 11.5 -180.253906 14.039062 -186.726562 19.125 -192 C 24.207031 -197.269531 30.296875 -199.90625 37.390625 -199.90625 L 73.34375 -199.90625 C 80.4375 -199.90625 86.523438 -197.269531 91.609375 -192 C 96.691406 -186.726562 99.234375 -180.253906 99.234375 -172.578125 Z M 67.59375 -30.203125 L 67.59375 -169.703125 L 43.140625 -169.703125 L 43.140625 -30.203125 Z M 67.59375 -30.203125 "/></g></g></g><g fill="#0057ff" fill-opacity="0.502"><g transform="translate(281.916028, 212.334997)"><g><path d="M 99.234375 -172.578125 L 99.234375 -27.328125 C 99.234375 -19.648438 96.691406 -13.175781 91.609375 -7.90625 C 86.523438 -2.632812 80.4375 0 73.34375 0 L 37.390625 0 C 30.296875 0 24.207031 -2.679688 19.125 -8.046875 C 14.039062 -13.421875 11.5 -19.847656 11.5 -27.328125 L 11.5 -172.578125 C 11.5 -180.253906 14.039062 -186.726562 19.125 -192 C 24.207031 -197.269531 30.296875 -199.90625 37.390625 -199.90625 L 73.34375 -199.90625 C 80.4375 -199.90625 86.523438 -197.269531 91.609375 -192 C 96.691406 -186.726562 99.234375 -180.253906 99.234375 -172.578125 Z M 67.59375 -30.203125 L 67.59375 -169.703125 L 43.140625 -169.703125 L 43.140625 -30.203125 Z M 67.59375 -30.203125 "/></g></g></g><g fill="#0057ff" fill-opacity="0.502"><g transform="translate(392.655545, 212.334997)"><g><path d="M 71.328125 0 L 34.21875 0 L -1.15625 -199.90625 L 31.0625 -199.90625 L 52.625 -73.0625 L 74.5 -199.90625 L 106.703125 -199.90625 Z M 71.328125 0 "/></g></g></g><g fill="#0057ff" fill-opacity="0.502"><g transform="translate(497.642358, 212.334997)"><g><path d="M 87.734375 -169.703125 L 43.140625 -169.703125 L 43.140625 -115.921875 L 87.734375 -138.9375 L 87.734375 -103.546875 L 43.140625 -80.546875 L 43.140625 -30.203125 L 87.734375 -30.203125 L 87.734375 0 L 11.5 0 L 11.5 -172.578125 C 11.5 -180.253906 14.039062 -186.726562 19.125 -192 C 24.207031 -197.269531 30.296875 -199.90625 37.390625 -199.90625 L 87.734375 -199.90625 Z M 87.734375 -169.703125 "/></g></g></g><g fill="#f9b054" fill-opacity="1"><g transform="translate(-5.127967, 205.194218)"><g><path d="M 83.421875 -185.234375 C 84.566406 -187.734375 86.195312 -190.035156 88.3125 -192.140625 C 93.289062 -197.316406 99.328125 -199.90625 106.421875 -199.90625 L 129.4375 -199.90625 C 136.53125 -199.90625 142.617188 -197.21875 147.703125 -191.84375 C 152.785156 -186.476562 155.328125 -180.054688 155.328125 -172.578125 L 155.328125 0 L 123.6875 0 L 123.6875 -169.703125 L 99.234375 -169.703125 L 99.234375 0 L 67.59375 0 L 67.59375 -169.703125 L 43.140625 -169.703125 L 43.140625 0 L 11.5 0 L 11.5 -172.578125 C 11.5 -180.253906 14.039062 -186.726562 19.125 -192 C 24.207031 -197.269531 30.296875 -199.90625 37.390625 -199.90625 L 60.40625 -199.90625 C 67.5 -199.90625 73.632812 -197.222656 78.8125 -191.859375 C 80.726562 -189.742188 82.265625 -187.535156 83.421875 -185.234375 Z M 83.421875 -185.234375 "/></g></g></g><g fill="#f9b054" fill-opacity="1"><g transform="translate(161.70038, 205.194218)"><g><path d="M 99.234375 -172.578125 L 99.234375 -27.328125 C 99.234375 -19.648438 96.691406 -13.175781 91.609375 -7.90625 C 86.523438 -2.632812 80.4375 0 73.34375 0 L 37.390625 0 C 30.296875 0 24.207031 -2.679688 19.125 -8.046875 C 14.039062 -13.421875 11.5 -19.847656 11.5 -27.328125 L 11.5 -172.578125 C 11.5 -180.253906 14.039062 -186.726562 19.125 -192 C 24.207031 -197.269531 30.296875 -199.90625 37.390625 -199.90625 L 73.34375 -199.90625 C 80.4375 -199.90625 86.523438 -197.269531 91.609375 -192 C 96.691406 -186.726562 99.234375 -180.253906 99.234375 -172.578125 Z M 67.59375 -30.203125 L 67.59375 -169.703125 L 43.140625 -169.703125 L 43.140625 -30.203125 Z M 67.59375 -30.203125 "/></g></g></g><g fill="#f9b054" fill-opacity="1"><g transform="translate(272.439897, 205.194218)"><g><path d="M 99.234375 -172.578125 L 99.234375 -27.328125 C 99.234375 -19.648438 96.691406 -13.175781 91.609375 -7.90625 C 86.523438 -2.632812 80.4375 0 73.34375 0 L 37.390625 0 C 30.296875 0 24.207031 -2.679688 19.125 -8.046875 C 14.039062 -13.421875 11.5 -19.847656 11.5 -27.328125 L 11.5 -172.578125 C 11.5 -180.253906 14.039062 -186.726562 19.125 -192 C 24.207031 -197.269531 30.296875 -199.90625 37.390625 -199.90625 L 73.34375 -199.90625 C 80.4375 -199.90625 86.523438 -197.269531 91.609375 -192 C 96.691406 -186.726562 99.234375 -180.253906 99.234375 -172.578125 Z M 67.59375 -30.203125 L 67.59375 -169.703125 L 43.140625 -169.703125 L 43.140625 -30.203125 Z M 67.59375 -30.203125 "/></g></g></g><g fill="#f9b054" fill-opacity="1"><g transform="translate(383.179414, 205.194218)"><g><path d="M 71.328125 0 L 34.21875 0 L -1.15625 -199.90625 L 31.0625 -199.90625 L 52.625 -73.0625 L 74.5 -199.90625 L 106.703125 -199.90625 Z M 71.328125 0 "/></g></g></g><g fill="#f9b054" fill-opacity="1"><g transform="translate(488.166228, 205.194218)"><g><path d="M 87.734375 -169.703125 L 43.140625 -169.703125 L 43.140625 -115.921875 L 87.734375 -138.9375 L 87.734375 -103.546875 L 43.140625 -80.546875 L 43.140625 -30.203125 L 87.734375 -30.203125 L 87.734375 0 L 11.5 0 L 11.5 -172.578125 C 11.5 -180.253906 14.039062 -186.726562 19.125 -192 C 24.207031 -197.269531 30.296875 -199.90625 37.390625 -199.90625 L 87.734375 -199.90625 Z M 87.734375 -169.703125 "/></g></g></g></g></g></svg>